<svg width="19" height="19" viewBox="0 0 19 19" fill="none" xmlns="http://www.w3.org/2000/svg">
  <path fill-rule="evenodd" clip-rule="evenodd"
    d="M10.5922 10.4139C9.16031 11.8458 6.83871 11.8458 5.40679 10.4139C3.97486 8.98193 3.97486 6.66033 5.40679 5.2284C6.83871 3.79648 9.16031 3.79648 10.5922 5.2284C12.0242 6.66033 12.0242 8.98193 10.5922 10.4139ZM11.0326 11.7968C9.07239 13.2962 6.25681 13.1495 4.46398 11.3567C2.51136 9.40404 2.51136 6.23822 4.46398 4.28559C6.4166 2.33297 9.58242 2.33297 11.535 4.28559C13.3278 6.07834 13.4746 8.89376 11.9754 10.854L15.5421 14.4207L14.5993 15.3635L11.0326 11.7968Z"
    fill="#999999" />
</svg>